<svg width="173" height="57" viewBox="0 0 173 57" fill="none" xmlns="http://www.w3.org/2000/svg">
<path d="M29.3257 0.660156C15.4316 0.660156 14.6262 26.6757 0.732178 26.6757V56.2637H172.293V25.3866C158.399 25.3866 157.594 17.3007 143.7 17.3007C129.806 17.3007 129 0.660156 115.106 0.660156C101.212 0.660156 100.809 10.2695 86.5126 10.2695C72.2159 10.2695 71.8131 39.0975 57.9191 39.0975C44.0251 39.0975 43.2197 0.660156 29.3257 0.660156Z" fill="url(#paint0_linear_2_207)"/>
<path d="M0.732178 26.5022C14.6262 26.5022 15.4316 0.660156 29.3257 0.660156C43.2197 0.660156 44.0251 38.8412 57.9191 38.8412C71.8132 38.8412 72.2159 10.2054 86.5126 10.2054C100.809 10.2054 101.212 0.660156 115.106 0.660156C129 0.660156 129.806 17.1898 143.7 17.1898C157.594 17.1898 158.399 25.2218 172.293 25.2218" stroke="white" stroke-opacity="0.5"/>
<defs>
<linearGradient id="paint0_linear_2_207" x1="114.905" y1="0.660156" x2="114.905" y2="56.2637" gradientUnits="userSpaceOnUse">
<stop stop-color="white" stop-opacity="0.1"/>
<stop offset="1" stop-color="white" stop-opacity="0"/>
</linearGradient>
</defs>
</svg>
