<svg width="33" height="33" viewBox="0 0 33 33" fill="none" xmlns="http://www.w3.org/2000/svg">
<circle cx="16.5801" cy="16.6299" r="16" fill="#262626"/>
<path fill-rule="evenodd" clip-rule="evenodd" d="M22.5255 13.17C22.3219 11.2043 20.4946 10.5455 18.1855 10.3577V7.62988H16.3986V10.2849C15.9295 10.2849 15.4489 10.2931 14.9722 10.3025V7.62988H13.1854L13.1842 10.3553L13.1649 10.3557C12.7845 10.3626 12.4103 10.3694 12.046 10.3694V10.3612L9.5813 10.36V12.1331C9.5813 12.1331 10.9015 12.1096 10.8788 12.1319C11.6034 12.1319 11.8386 12.5218 11.9069 12.8588V15.9658C11.9574 15.9658 12.0219 15.9682 12.0953 15.9776H11.9069L11.9057 20.3305C11.874 20.5419 11.7399 20.8789 11.2342 20.8801C11.2569 20.8989 9.93547 20.8801 9.93547 20.8801L9.58008 22.8622H11.9069C12.1692 22.8622 12.4291 22.8648 12.6862 22.8674C12.8532 22.869 13.0187 22.8707 13.1828 22.8716L13.1842 25.6299H14.9696V22.9009C15.4591 22.9103 15.9333 22.9138 16.3974 22.9138L16.3961 25.6299H18.183V22.8774C21.1876 22.7178 23.2931 22.0144 23.5536 19.3935C23.7648 17.2834 22.6963 16.3404 20.9903 15.96C22.0285 15.4715 22.6773 14.6084 22.5255 13.17ZM15.2288 15.5698L15.3103 15.571C16.5338 15.5889 19.1921 15.6279 19.1921 13.9111C19.1932 12.1539 16.6317 12.2169 15.3794 12.2477C15.2382 12.2511 15.1137 12.2542 15.0114 12.2542V15.5679C15.0755 15.5678 15.1485 15.5687 15.2288 15.5698ZM15.2062 20.8956L15.356 20.8976C16.8182 20.9171 20.0241 20.96 20.0241 19.0672C20.0241 17.1372 16.9587 17.2011 15.4557 17.2324C15.2852 17.236 15.1348 17.2391 15.0114 17.2389V20.8943C15.0704 20.8943 15.1356 20.8948 15.2062 20.8956Z" fill="#DCDCE2"/>
</svg>
